<svg xmlns="http://www.w3.org/2000/svg" width="109" height="48" viewBox="0 0 109 48" fill="none">
<rect width="109" height="48" rx="15" fill="#F2F2F2"/>
<path d="M25.5 37.6667C26.1444 37.6667 26.6667 37.1444 26.6667 36.5C26.6667 35.8557 26.1444 35.3334 25.5 35.3334C24.8557 35.3334 24.3334 35.8557 24.3334 36.5C24.3334 37.1444 24.8557 37.6667 25.5 37.6667Z" stroke="black" stroke-width="2" stroke-linecap="round" stroke-linejoin="round"/>
<path d="M38.3333 37.6667C38.9776 37.6667 39.5 37.1444 39.5 36.5C39.5 35.8557 38.9776 35.3334 38.3333 35.3334C37.689 35.3334 37.1666 35.8557 37.1666 36.5C37.1666 37.1444 37.689 37.6667 38.3333 37.6667Z" stroke="black" stroke-width="2" stroke-linecap="round" stroke-linejoin="round"/>
<path d="M16.1666 13.1666H20.8333L23.96 28.7883C24.0666 29.3254 24.3589 29.8079 24.7854 30.1513C25.212 30.4947 25.7458 30.6771 26.2933 30.6666H37.6333C38.1808 30.6771 38.7146 30.4947 39.1412 30.1513C39.5677 29.8079 39.8599 29.3254 39.9666 28.7883L41.8333 19H22" stroke="black" stroke-width="2" stroke-linecap="round" stroke-linejoin="round"/>
<path d="M57 15C57 6.71573 63.7157 0 72 0H94C102.284 0 109 6.71573 109 15V33C109 41.2843 102.284 48 94 48H72C63.7157 48 57 41.2843 57 33V15Z" fill="#505050"/>
</svg>